<svg width="512" height="512" viewBox="0 0 512 512" fill="none" xmlns="http://www.w3.org/2000/svg" role="img" aria-label="Rodent Inc. emblem">
  <defs>
    <radialGradient id="ring" cx="50%" cy="50%" r="60%">
      <stop offset="0%" stop-color="#f7e2c1" />
      <stop offset="45%" stop-color="#d9b67b" />
      <stop offset="100%" stop-color="#7b5a2b" />
    </radialGradient>
    <linearGradient id="inner" x1="0%" y1="0%" x2="100%" y2="100%">
      <stop offset="0%" stop-color="#f6c37a" />
      <stop offset="50%" stop-color="#e1a95e" />
      <stop offset="100%" stop-color="#7a4d2f" />
    </linearGradient>
    <linearGradient id="fur" x1="0%" y1="0%" x2="100%" y2="50%">
      <stop offset="0%" stop-color="#f4c984" />
      <stop offset="50%" stop-color="#cb8c3c" />
      <stop offset="100%" stop-color="#6d3a1f" />
    </linearGradient>
    <linearGradient id="metal" x1="0%" y1="0%" x2="0%" y2="100%">
      <stop offset="0%" stop-color="#f7ede0" stop-opacity="0.95" />
      <stop offset="70%" stop-color="#c69b5a" stop-opacity="0.9" />
      <stop offset="100%" stop-color="#543216" stop-opacity="0.95" />
    </linearGradient>
    <linearGradient id="nose" x1="0%" y1="0%" x2="100%" y2="100%">
      <stop offset="0%" stop-color="#2d140c" />
      <stop offset="100%" stop-color="#6f2d15" />
    </linearGradient>
    <filter id="shadow" x="-20%" y="-20%" width="140%" height="140%" color-interpolation-filters="sRGB">
      <feDropShadow dx="0" dy="8" stdDeviation="12" flood-color="#0a0806" flood-opacity="0.35" />
    </filter>
  </defs>

  <g filter="url(#shadow)">
    <circle cx="256" cy="256" r="236" fill="url(#ring)" stroke="#f1dfc4" stroke-width="12" />
    <circle cx="256" cy="256" r="190" fill="url(#inner)" stroke="#35210f" stroke-width="8" />
    <circle cx="256" cy="256" r="158" fill="#0f0b0a" opacity="0.82" />
    <circle cx="256" cy="256" r="150" fill="url(#metal)" opacity="0.85" />
  </g>

  <g transform="translate(128 124)">
    <ellipse cx="45" cy="58" rx="36" ry="44" fill="#f7d9a7" stroke="#5a3520" stroke-width="6" />
    <ellipse cx="211" cy="58" rx="36" ry="44" fill="#f7d9a7" stroke="#5a3520" stroke-width="6" />

    <path d="M128 28C93 40 67 90 64 140c-3 50 21 96 64 122 43-26 67-72 64-122-3-50-29-100-64-112Z" fill="url(#fur)" stroke="#2b160c" stroke-width="10" stroke-linejoin="round" />

    <path d="M108 80c-8 12-18 42-16 70 1 20 11 46 36 68 25-22 35-48 36-68 2-28-8-58-16-70-8-12-32-12-40 0Z" fill="url(#fur)" stroke="#2b160c" stroke-width="8" />

    <path d="M125 155c-12 6-26 18-26 32 0 10 8 18 22 18 10 0 18-4 22-10 4 6 12 10 22 10 14 0 22-8 22-18 0-14-14-26-26-32-8 4-28 4-36 0Z" fill="#f5dfc6" stroke="#3a2415" stroke-width="6" stroke-linejoin="round" />

    <ellipse cx="111" cy="129" rx="12" ry="18" fill="#0f0b0a" />
    <ellipse cx="145" cy="129" rx="12" ry="18" fill="#0f0b0a" />
    <circle cx="113" cy="125" r="5" fill="#f8e9c8" />
    <circle cx="143" cy="125" r="5" fill="#f8e9c8" />

    <path d="M128 145c6 6 10 8 16 8s10-2 16-8" stroke="#f8e9c8" stroke-width="6" stroke-linecap="round" />

    <path d="M148 162c-6 6-12 16-12 22s6 10 12 10 12-4 12-10-6-16-12-22Z" fill="url(#nose)" stroke="#1a0d08" stroke-width="4" />
    <circle cx="148" cy="180" r="5" fill="#f8e9c8" />

    <path d="M94 178c-12 12-32 26-46 30" stroke="#0f0b0a" stroke-width="6" stroke-linecap="round" />
    <path d="M202 178c12 12 32 26 46 30" stroke="#0f0b0a" stroke-width="6" stroke-linecap="round" />

    <path d="M128 102c-6-12-10-20-22-20-12 0-22 10-22 22" stroke="#2b160c" stroke-width="8" stroke-linecap="round" />
    <path d="M148 102c6-12 10-20 22-20 12 0 22 10 22 22" stroke="#2b160c" stroke-width="8" stroke-linecap="round" />

    <circle cx="45" cy="58" r="14" fill="#dba868" opacity="0.8" />
    <circle cx="211" cy="58" r="14" fill="#dba868" opacity="0.8" />
  </g>

  <text x="256" y="444" text-anchor="middle" font-family="'Inter', 'Poppins', sans-serif" font-size="44" font-weight="700" fill="#f9e7c6" letter-spacing="2">
    Rodent
  </text>
</svg>
